<?xml version="1.0" standalone="no"?>
<!DOCTYPE svg PUBLIC "-//W3C//DTD SVG 20010904//EN"
 "http://www.w3.org/TR/2001/REC-SVG-20010904/DTD/svg10.dtd">
<svg version="1.0" xmlns="http://www.w3.org/2000/svg"
 width="1246.000000pt" height="1280.000000pt" viewBox="0 0 1246.000000 1280.000000"
 preserveAspectRatio="xMidYMid meet">
<metadata>
Created by potrace 1.15, written by Peter Selinger 2001-2017
</metadata>
<g transform="translate(0.000000,1280.000000) scale(0.100000,-0.100000)"
fill="#000000" stroke="none">
<path d="M5635 12791 c-22 -4 -52 -15 -66 -24 -33 -22 -77 -85 -88 -123 -7
-27 -11 -29 -72 -35 -80 -7 -100 -18 -141 -77 -27 -39 -33 -58 -36 -112 -7
-126 59 -237 172 -289 33 -16 70 -35 81 -44 18 -14 16 -15 -40 -22 -126 -13
-268 -35 -308 -47 -56 -16 -151 -111 -207 -208 -73 -124 -123 -250 -251 -626
-66 -198 -127 -373 -134 -391 -7 -17 -52 -75 -98 -128 -116 -132 -159 -217
-165 -328 -5 -103 10 -178 53 -265 40 -80 137 -180 191 -199 65 -23 198 -41
381 -54 l180 -12 6 -211 c9 -316 19 -354 167 -655 86 -174 91 -188 117 -324
21 -110 26 -168 25 -256 -2 -139 9 -170 75 -202 41 -20 50 -21 96 -10 62 14
126 50 160 90 13 16 34 60 46 98 17 55 31 79 77 126 31 32 58 56 60 54 2 -2
47 -92 100 -201 l96 -198 -21 -64 c-26 -79 -45 -247 -31 -273 15 -29 100 -79
177 -105 99 -33 108 -40 188 -122 97 -100 155 -126 279 -127 96 -1 128 8 147
45 21 39 -46 236 -105 305 -15 18 -58 53 -96 78 -137 91 -300 309 -300 402 0
41 -53 304 -95 473 -38 152 -215 662 -325 935 -77 191 -188 421 -266 551 -26
44 -86 156 -134 251 l-87 172 58 61 c40 41 71 88 98 146 l40 84 43 -7 c54 -10
316 -10 386 0 50 7 53 6 62 -17 36 -95 181 -277 255 -320 39 -23 43 -29 48
-76 13 -108 88 -226 183 -286 214 -137 489 -34 575 214 24 70 26 195 4 268
-29 96 -106 193 -189 236 -27 14 -29 19 -32 83 -3 70 -23 107 -66 121 -19 6
-26 34 -8 34 6 0 26 7 45 14 24 11 33 20 29 30 -11 28 -72 29 -242 6 -210 -29
-364 -32 -409 -8 -42 24 -71 63 -79 107 -24 144 -82 280 -158 366 -31 36 -66
61 -125 90 -44 21 -81 45 -81 53 0 21 56 72 80 72 26 0 77 25 108 53 15 14 22
32 22 57 0 21 3 52 6 69 6 31 8 32 44 26 73 -12 89 45 36 125 l-24 36 19 85
c22 99 23 137 7 193 -16 52 -123 167 -182 194 -86 41 -254 61 -361 43z"/>
<path d="M11368 12679 c-135 -17 -252 -81 -354 -192 -107 -117 -157 -250 -156
-417 1 -276 184 -513 447 -580 140 -36 259 -23 395 42 113 54 220 159 274 268
164 336 1 740 -344 853 -89 29 -170 37 -262 26z"/>
<path d="M1830 12424 c-100 -36 -182 -126 -199 -217 -11 -61 2 -195 24 -238
10 -19 31 -49 48 -66 29 -31 30 -33 9 -33 -12 0 -22 -3 -22 -7 0 -4 24 -43 53
-87 l52 -80 0 -122 c0 -145 -9 -164 -81 -164 -23 0 -89 -9 -145 -20 -57 -10
-156 -21 -220 -22 l-115 -3 7 54 c16 115 -34 246 -125 328 l-51 45 -70 -5
c-38 -4 -81 -9 -95 -12 -21 -5 -29 1 -52 39 -38 63 -65 78 -172 89 -146 15
-205 -6 -156 -58 l20 -21 -30 -22 c-16 -12 -41 -42 -56 -67 -19 -34 -40 -53
-78 -72 -64 -32 -86 -51 -86 -75 0 -22 -2 -22 112 -2 91 16 177 12 147 -7 -8
-5 -27 -9 -42 -9 -32 0 -45 -23 -27 -45 15 -18 54 -19 116 -3 45 12 47 12 69
-16 14 -18 25 -24 29 -17 12 19 34 12 71 -20 27 -24 34 -36 29 -54 -4 -15 8
-49 35 -103 23 -45 41 -93 41 -108 0 -19 -22 -52 -72 -111 -138 -161 -151
-178 -180 -241 -15 -34 -35 -93 -44 -130 -9 -37 -30 -92 -47 -122 -26 -46 -31
-66 -32 -120 0 -36 4 -90 8 -120 8 -54 7 -57 -37 -130 -37 -60 -46 -84 -46
-122 0 -26 -16 -111 -36 -190 -56 -225 -52 -303 31 -522 38 -101 44 -112 72
-120 28 -9 35 -21 79 -130 77 -195 138 -327 182 -395 23 -35 47 -82 53 -104
l10 -39 -59 -53 c-83 -75 -187 -231 -205 -306 -4 -14 -14 -104 -22 -200 -21
-227 -35 -292 -84 -381 -22 -40 -60 -120 -85 -177 l-46 -103 74 -75 c67 -69
76 -75 104 -69 28 7 33 2 94 -76 80 -103 100 -112 243 -104 98 5 142 21 152
53 2 6 -28 46 -67 90 -131 145 -164 260 -158 537 3 137 7 171 27 226 39 108
123 268 235 445 58 92 113 188 122 212 16 42 16 49 -4 146 -12 56 -49 201 -82
322 -33 121 -60 224 -60 229 0 5 18 -17 40 -48 76 -108 154 -198 219 -253 81
-69 154 -153 180 -209 11 -23 32 -107 46 -186 14 -79 32 -170 41 -203 20 -73
96 -271 198 -509 42 -98 76 -191 76 -206 0 -15 -7 -47 -15 -70 -20 -58 -19
-105 6 -185 l20 -67 57 7 c133 15 197 36 337 105 78 38 153 81 167 95 46 45
63 149 30 178 -24 22 -113 22 -192 2 -65 -17 -97 -10 -139 28 -85 78 -133 227
-215 657 -24 129 -53 258 -65 287 -11 29 -27 81 -35 117 -9 35 -38 106 -65
158 -27 51 -75 156 -106 233 -67 165 -85 201 -130 263 -51 73 -142 234 -182
325 -32 72 -36 92 -37 169 -1 85 0 88 49 183 l50 97 1 157 c1 173 12 216 70
276 27 28 47 34 252 79 207 46 225 51 248 79 32 39 60 93 69 137 3 19 17 71
30 115 19 67 24 109 27 255 4 161 7 184 37 293 32 113 35 119 75 147 63 43
113 104 127 152 7 26 9 79 6 133 -8 154 -54 237 -160 292 -67 34 -206 43 -277
17z m-149 -1336 l-26 -37 -95 5 c-67 4 -111 1 -150 -9 -30 -9 -56 -15 -57 -14
-1 1 3 22 9 47 l10 45 168 0 168 0 -27 -37z"/>
<path d="M10266 11818 c-15 -25 -36 -131 -37 -194 l-1 -39 -13 31 c-9 21 -26
36 -46 43 -18 6 -34 10 -35 8 -2 -2 -16 -83 -31 -180 l-27 -177 -33 0 -33 0 0
-59 0 -60 -62 -44 c-35 -24 -76 -49 -93 -56 -38 -15 -144 -158 -156 -209 -5
-21 -9 -54 -9 -75 0 -28 -31 -103 -115 -277 -138 -288 -201 -427 -226 -499
-23 -65 -130 -242 -293 -486 -88 -132 -128 -201 -149 -260 -33 -94 -62 -258
-72 -405 -7 -121 -23 -189 -64 -287 -41 -95 -161 -697 -161 -806 0 -72 -57
-204 -107 -249 -10 -10 -66 -38 -123 -64 -58 -25 -130 -62 -161 -81 -68 -42
-187 -82 -374 -128 l-140 -34 -630 -5 c-814 -6 -941 -16 -1090 -86 -75 -36
-131 -90 -204 -201 -70 -104 -92 -177 -120 -399 -18 -141 -129 -685 -150 -736
-5 -12 -26 -25 -52 -33 -149 -45 -208 -116 -234 -281 -4 -24 -13 -53 -19 -63
-6 -10 -59 -56 -118 -103 -189 -150 -286 -272 -303 -380 -6 -37 -3 -46 26 -78
63 -73 221 -146 313 -146 65 0 133 21 281 84 l111 47 38 80 c46 95 113 173
163 190 26 8 78 10 179 5 169 -8 166 -9 322 99 126 87 138 105 136 205 -2 144
-43 204 -160 239 -84 25 -135 57 -148 93 -7 21 -3 38 24 89 79 154 228 394
279 447 33 36 100 52 214 52 175 -1 330 -37 489 -115 90 -44 138 -61 230 -80
190 -38 587 -75 817 -75 l84 0 44 -47 c63 -69 158 -205 194 -279 23 -47 34
-86 40 -151 16 -152 39 -330 74 -568 45 -307 75 -789 75 -1223 l0 -153 44
-132 c25 -73 70 -193 101 -267 104 -247 96 -213 105 -445 9 -226 7 -213 165
-1062 30 -160 55 -301 55 -313 0 -31 -56 -132 -100 -183 -59 -68 -71 -99 -72
-190 0 -45 9 -149 22 -232 30 -200 27 -224 -49 -356 -71 -124 -111 -224 -111
-279 0 -54 43 -102 118 -131 46 -19 78 -23 167 -23 107 -1 112 0 187 37 48 23
99 59 136 95 53 50 62 64 71 112 17 82 16 677 -1 825 -9 83 -12 221 -10 450 4
457 20 1025 32 1142 25 230 13 344 -71 675 -78 311 -79 317 -41 577 68 465
184 1184 222 1376 22 110 40 212 40 227 0 15 -12 57 -26 93 l-26 65 17 77 c37
170 123 399 265 708 250 545 259 560 510 890 122 159 238 315 259 346 45 68
77 177 131 449 73 367 73 373 63 675 l-8 270 56 275 c31 151 64 344 73 429 27
247 42 316 90 416 24 50 49 107 55 127 10 30 24 44 69 70 165 93 270 171 303
224 45 74 -17 69 -196 -17 -123 -59 -180 -72 -191 -44 -3 8 40 101 95 208 56
107 101 206 101 220 0 29 -16 45 -56 52 -28 6 -32 1 -128 -155 -55 -88 -101
-159 -103 -157 -2 2 5 64 16 138 35 242 35 251 11 282 -30 38 -76 38 -91 0
-15 -40 -46 -213 -60 -338 l-12 -107 -33 -16 c-19 -8 -35 -14 -37 -11 -2 2
-15 56 -29 119 l-25 115 31 13 c17 8 39 21 49 29 20 19 23 66 5 80 -7 6 -65
23 -128 39 -110 27 -118 32 -182 87 -38 32 -68 63 -68 69 0 28 61 143 122 228
92 130 130 208 126 262 -3 37 -6 43 -28 46 -22 2 -44 -21 -163 -173 -77 -96
-141 -175 -144 -175 -9 0 7 88 23 125 8 21 14 68 14 118 0 74 -3 86 -23 105
-30 28 -63 28 -81 0z"/>
<path d="M3662 9596 c-175 -43 -303 -171 -338 -337 -18 -87 -8 -167 30 -252
13 -29 41 -112 61 -185 39 -142 40 -180 6 -223 -35 -45 -53 -90 -46 -116 3
-14 29 -49 56 -79 l51 -53 24 -163 c30 -204 30 -278 -1 -503 -14 -99 -34 -259
-45 -355 -26 -235 -67 -512 -86 -580 -9 -30 -41 -109 -71 -175 -30 -66 -64
-148 -75 -182 -16 -50 -26 -64 -49 -74 -17 -6 -31 -10 -33 -8 -2 2 -6 22 -9
45 -5 30 -2 48 13 75 54 92 54 88 10 198 -26 65 -40 115 -40 145 0 42 -3 48
-37 71 -21 13 -60 52 -86 85 -42 52 -57 62 -104 76 -89 26 -219 16 -313 -24
-86 -37 -175 -100 -219 -156 -28 -35 -31 -45 -30 -110 0 -39 3 -102 8 -139 6
-59 5 -67 -8 -61 -35 15 -68 15 -83 1 -24 -24 -70 -221 -59 -250 10 -26 136
-97 173 -97 33 0 74 28 116 77 l41 47 61 -29 c53 -25 60 -32 55 -52 -15 -63
-20 -67 -141 -117 -66 -27 -168 -73 -229 -101 -100 -47 -115 -58 -162 -116
-28 -35 -76 -88 -105 -116 -53 -52 -55 -53 -298 -134 -364 -120 -503 -174
-620 -239 -148 -83 -343 -175 -425 -201 -87 -28 -132 -27 -267 5 -111 27 -208
33 -252 16 -38 -14 -78 -82 -84 -140 -6 -63 10 -102 58 -140 108 -85 232 -93
268 -17 12 25 17 27 77 27 44 0 85 8 129 24 73 28 166 47 531 111 301 52 310
54 375 94 118 72 328 175 470 230 208 80 292 115 358 151 31 17 66 30 78 30
13 0 46 -21 78 -51 121 -111 286 -450 286 -589 0 -82 -25 -204 -52 -253 -28
-51 -53 -65 -283 -164 -99 -42 -198 -88 -220 -101 -42 -25 -61 -54 -227 -341
-86 -150 -86 -141 -9 -193 50 -34 80 -66 81 -86 0 -15 -190 -302 -267 -402
-54 -69 -78 -88 -360 -280 -411 -279 -458 -318 -517 -417 -26 -44 -85 -131
-130 -194 -69 -96 -103 -132 -220 -232 -149 -126 -318 -231 -454 -282 -68 -25
-102 -47 -102 -64 0 -34 237 -299 306 -341 32 -21 36 -21 59 -6 38 25 120 133
161 211 89 170 262 359 379 414 137 65 518 338 604 434 76 84 92 96 179 127
132 47 260 129 472 299 52 42 169 121 260 175 233 140 474 300 521 347 39 39
42 40 59 24 39 -35 54 -110 52 -250 -4 -294 -43 -735 -72 -819 -24 -71 -25
-102 -4 -177 l16 -57 -36 -99 c-54 -144 -66 -253 -70 -618 -5 -403 -15 -442
-131 -473 -64 -17 -108 -63 -129 -134 -23 -82 -20 -115 23 -251 22 -67 58
-187 81 -266 49 -171 76 -228 127 -270 45 -38 132 -65 177 -57 33 6 64 33 85
73 21 41 18 61 -64 363 -38 141 -37 174 14 273 40 78 43 90 56 222 17 168 31
226 143 555 l87 255 5 190 5 190 88 220 c200 496 212 538 247 815 77 624 75
596 74 900 -2 325 -19 919 -35 1155 -17 261 -49 534 -76 635 -39 147 -54 232
-48 265 4 16 26 89 51 161 66 195 86 298 83 429 -3 158 -1 243 12 385 17 183
16 306 -4 368 -25 80 -39 277 -40 566 -2 219 1 273 16 336 32 137 43 150 195
250 150 98 227 175 271 270 37 78 42 211 11 292 -32 87 -78 147 -161 210 -65
49 -84 58 -154 72 -94 19 -160 19 -233 2z"/>
<path d="M11587 7106 c-104 -44 -187 -131 -217 -231 -7 -22 -21 -58 -31 -81
-11 -23 -31 -81 -45 -130 -14 -49 -30 -96 -35 -106 -8 -16 -221 -174 -382
-285 -128 -88 -121 -65 -192 -619 -24 -192 -54 -385 -65 -429 -33 -126 -36
-208 -11 -285 12 -36 26 -108 31 -160 6 -52 15 -124 21 -160 34 -230 60 -472
55 -520 -7 -77 -27 -127 -100 -260 -35 -63 -73 -148 -85 -189 -12 -40 -52
-148 -88 -240 -86 -219 -131 -353 -139 -413 l-7 -48 57 -25 c64 -28 63 -24 39
-150 -14 -75 -17 -132 -13 -335 5 -260 5 -350 -2 -1040 -5 -463 -11 -540 -54
-642 -31 -74 -30 -90 6 -166 86 -183 212 -352 272 -367 37 -9 97 21 125 64 37
54 31 113 -23 249 l-47 117 0 235 c0 265 8 327 74 580 63 243 195 691 248 845
48 137 71 244 71 324 0 22 5 43 10 46 16 10 12 -69 -10 -190 -11 -60 -24 -177
-29 -260 -6 -90 -26 -244 -50 -385 -24 -136 -47 -317 -56 -430 -27 -339 -47
-461 -106 -638 -28 -85 -30 -96 -19 -145 15 -72 135 -290 184 -334 39 -35 39
-36 112 -30 109 8 114 13 114 102 0 71 -2 77 -34 112 -43 49 -63 88 -80 163
l-14 61 179 542 c190 573 215 656 328 1102 89 349 79 317 100 306 31 -17 43 4
53 95 12 103 4 528 -13 714 -6 73 -9 217 -6 345 5 210 7 229 46 415 56 266 98
424 126 479 13 25 96 143 184 261 143 192 170 234 252 400 118 239 143 303
135 353 -11 65 -101 328 -139 402 -19 39 -80 146 -136 239 -121 203 -130 226
-107 292 9 27 16 80 16 123 0 95 -36 178 -107 248 -73 70 -139 97 -248 101
-77 2 -99 -1 -148 -22z m357 -728 c19 -40 68 -172 109 -293 41 -121 82 -238
91 -260 8 -22 15 -61 16 -86 0 -40 -7 -56 -47 -110 -25 -35 -73 -94 -104 -131
-32 -37 -85 -107 -118 -155 -52 -78 -108 -139 -218 -237 -24 -22 -48 -31 -90
-37 -67 -10 -83 2 -83 59 0 28 10 43 59 90 32 31 65 68 74 82 22 35 57 238 57
334 0 89 -28 190 -78 281 -21 38 -39 55 -81 77 -46 24 -64 28 -140 28 -100 -1
-154 -11 -190 -38 -30 -22 -95 -115 -151 -215 l-38 -69 -4 42 c-6 61 10 206
27 246 32 77 284 337 386 397 l64 39 134 -6 c134 -7 286 8 275 26 -3 4 -1 8 5
8 6 0 26 -33 45 -72z"/>
<path d="M6444 4766 c-18 -8 -48 -38 -72 -72 -65 -94 -57 -90 -173 -97 -58 -3
-116 -11 -130 -17 -13 -6 -48 -50 -78 -97 -42 -66 -96 -127 -233 -262 -98 -96
-181 -186 -185 -199 -6 -25 13 -102 25 -102 13 0 88 83 116 127 16 26 61 67
123 113 144 104 322 269 350 324 13 25 27 46 32 46 19 0 18 -16 -5 -67 -26
-60 -30 -106 -13 -166 7 -28 23 -47 60 -73 27 -20 47 -40 44 -44 -3 -4 -58
-11 -122 -15 -163 -9 -200 -18 -328 -79 -125 -61 -140 -74 -281 -263 -51 -69
-101 -124 -131 -144 -51 -36 -181 -109 -193 -109 -4 0 -5 22 -2 49 10 111 -50
216 -154 267 -50 24 -62 26 -151 22 -80 -3 -109 -9 -158 -31 -97 -45 -146
-101 -160 -184 -7 -42 -19 -56 -27 -31 -2 6 -10 8 -16 4 -15 -9 -16 -186 -1
-241 13 -47 103 -141 170 -177 39 -20 57 -23 159 -23 104 1 127 4 240 39 69
21 153 51 187 66 63 29 232 151 410 297 56 45 105 83 110 83 8 0 49 -62 76
-115 23 -45 57 -239 57 -321 0 -131 -50 -254 -156 -385 -93 -114 -232 -306
-256 -353 -12 -23 -78 -120 -147 -216 -175 -241 -184 -258 -236 -409 -57 -165
-71 -194 -155 -306 -90 -120 -123 -187 -165 -330 -54 -189 -107 -321 -177
-440 -35 -60 -70 -125 -76 -144 -18 -52 -55 -95 -137 -158 -83 -63 -101 -93
-111 -176 -6 -54 -5 -57 18 -66 38 -14 268 -29 323 -21 26 4 54 15 60 23 14
20 46 32 107 41 66 10 70 19 46 102 l-21 71 27 124 c35 158 67 238 126 319
109 148 209 331 250 455 20 59 39 89 124 190 156 186 201 230 346 338 178 132
244 187 310 257 49 51 62 59 114 70 62 13 118 7 134 -13 5 -6 22 -57 36 -112
36 -135 110 -268 194 -349 83 -80 149 -178 212 -311 l51 -109 -16 -61 c-19
-78 -19 -185 0 -255 78 -279 81 -322 35 -475 -47 -155 -61 -222 -51 -247 5
-13 36 -49 69 -80 l59 -57 -11 -42 c-11 -41 -11 -42 33 -80 46 -41 119 -69
181 -69 48 0 134 44 148 75 10 21 4 43 -48 163 -66 154 -73 179 -91 367 l-12
130 37 190 c49 249 53 313 28 440 -11 55 -25 143 -32 195 -6 52 -15 131 -20
176 -6 44 -43 197 -84 340 -41 144 -79 296 -86 340 -18 123 -57 280 -82 327
-22 40 -23 53 -23 257 0 205 12 333 35 370 13 21 25 3 116 -175 105 -204 252
-451 334 -561 56 -75 83 -100 161 -153 52 -35 115 -86 141 -114 l48 -52 0 37
c0 21 -9 60 -20 89 l-21 51 25 -18 c13 -11 42 -34 64 -52 73 -59 62 -5 -19 98
l-42 54 46 -33 c25 -18 50 -32 56 -30 21 8 -28 87 -105 168 -76 79 -82 83
-149 100 l-70 17 -66 189 c-36 105 -89 241 -118 303 -53 117 -81 204 -81 257
0 39 -44 202 -71 266 -15 33 -43 69 -85 108 -58 53 -169 134 -196 143 -7 3 -6
12 4 29 9 13 19 39 23 57 4 21 16 37 31 44 32 15 32 66 0 131 -20 42 -22 53
-14 94 16 71 -27 218 -80 277 -59 64 -284 108 -368 72z"/>
</g>
</svg>
