<svg xmlns="http://www.w3.org/2000/svg" xmlns:xlink="http://www.w3.org/1999/xlink" width="1550" height="290" viewBox="0 0 1550 290">
    <defs>
        <path id="a" d="M0 290h1550V0H0z"/>
        <path id="c" d="M.219 290.647v-290h895.34v290z"/>
        <path id="e" d="M514.807 290.568H.147v-290h514.66v290z"/>
        <path id="g" d="M482.994 290.568H.584v-290h482.41v290z"/>
    </defs>
    <g fill="none" fill-rule="evenodd">
        <mask id="b" fill="#fff">
            <use xlink:href="#a"/>
        </mask>
        <use fill="#003D77" xlink:href="#a"/>
        <g mask="url(#b)">
            <g transform="translate(-2 -.647)">
                <mask id="d" fill="#fff">
                    <use xlink:href="#c"/>
                </mask>
                <path fill="#205C9E" d="M838.664 1074.927c-200.828-51.546-625.268-259.131-614.686-746.095 3.854-176.314 90.134-317.116 255.601-403.47 147.791-77.092 365.234-47.23 366.978-61.738.648-5.588-7.536-9.181-29.96-13.915-162.763-34.39-820.772-172.634-1357.422 75.94-4.935 2.29-31.909 12.705-44.911 4.66-16.257-8.333-12.355-34.69-11.876-39.123 39.448-377.793 291.39-611.502 291.39-611.502-954.84 216.872-992.042 964.003-979.138 1188.081.873 15.744 8.747 24.08 15.563 24.08 9.2 0 15.484-10.265 19.958-22.809 33.933-94.757 68.9-161.756 125.973-222.585-10.762 303.116 87.06 617.834 295.749 848.777 4.044 4.534 21.65 21.459 35.515 15.268 10.025-3.847 4.679-30.992 4.194-34.194C-850.945 671.14-766.452 62.868-10.953-46.774 3.765-48.921-7.924-50.958 2-33.536c9.94 19.183-14.742 11.59-20.75 21.867-185.143 316.934 116.073 672.807 218.179 808.313 15.382 20.316 20.863 28.816 16.885 39.693-2.86 9.632-14.223 15.424-36.034 16.86-129.678 8.445-291.862-67.541-387.766-145.54-16.957-13.74-32.584-29.932-39.396-27.492-7.225 3.579-7.304 24.491-6.07 42.863 19.024 278.481 111.177 441.347 265.928 561.51 4.409 3.43 21.733 13.289 29.126 5.54 5.355-5.596-2.208-23.954-5.097-29.054-32.665-58.421-92.587-178.742-64.57-313.587 0 0 316.874 328.476 867.306 171.31 12.894-3.673 35.785-11.362 34.958-22.128-1.02-13.332-21.061-17.84-36.035-21.692z" mask="url(#d)" opacity=".3"/>
            </g>
            <g transform="translate(294.373 -.568)">
                <mask id="f" fill="#fff">
                    <use xlink:href="#e"/>
                </mask>
                <path fill="#205C9E" d="M76.245 84.067s-264.05 281.555 191.574 637.055c125.987 98.295 244.5 131.997 246.679 48.814 2.978-111.955-16.16-192.491-38.46-243.855-29.188-67.427-65.984-72.393-100.246-88.933C255.888 379.037 36.946 324.472 76.245 84.067" mask="url(#f)" opacity=".3"/>
            </g>
            <g transform="translate(320.143 -.568)">
                <mask id="h" fill="#fff">
                    <use xlink:href="#g"/>
                </mask>
                <path fill="#114D8C" d="M50.475 84.067s-.95.917-2.634 2.717c-2.212 2.337-76.382 113.1-34.425 224.543 90.45 240.22 404.12 457.598 469.576 340.36-3.386-39.205-19.62-95.531-32.724-125.606-29.704-68.201-65.985-72.393-100.247-88.933C230.117 379.037 11.176 324.472 50.475 84.067" mask="url(#h)"/>
            </g>
        </g>
    </g>
</svg>
